<?xml version="1.0" standalone="no"?>
<!DOCTYPE svg PUBLIC "-//W3C//DTD SVG 20010904//EN"
 "http://www.w3.org/TR/2001/REC-SVG-20010904/DTD/svg10.dtd">
<svg version="1.0" xmlns="http://www.w3.org/2000/svg"
 width="418.000000pt" height="376.000000pt" viewBox="0 0 418.000000 376.000000"
 preserveAspectRatio="xMidYMid meet">

<g transform="translate(0.000000,376.000000) scale(0.100000,-0.100000)"
fill="#000000" stroke="none">
<path d="M1715 3740 c-121 -4 -221 -8 -222 -9 -6 -5 38 -405 46 -413 6 -7 566
7 618 16 55 8 2 -17 -108 -51 l-121 -37 7 -210 c16 -558 25 -1156 25 -1708 l0
-606 -71 -234 c-39 -128 -74 -235 -76 -238 -3 -3 -3 23 1 56 l7 62 -59 73
c-32 41 -82 101 -110 134 l-51 60 -136 15 c-88 10 -135 12 -135 5 1 -5 34 -89
74 -185 l74 -175 159 -147 160 -148 129 56 c158 69 185 88 301 206 l92 93 20
270 c32 426 37 619 67 2668 l7 457 -239 -2 c-131 -1 -338 -5 -459 -8z"/>
<path d="M3426 3643 c-3 -10 -102 -457 -220 -993 -118 -536 -224 -1015 -234
-1063 l-20 -89 91 6 c206 14 204 14 210 49 3 18 35 185 71 372 36 187 93 486
126 665 34 179 64 332 67 340 3 8 14 -34 24 -95 16 -95 189 -1377 189 -1397 0
-5 -186 -8 -413 -8 l-413 0 -131 -557 -130 -558 25 -7 c15 -4 78 -11 142 -15
l115 -7 -115 -22 c-198 -39 -184 -31 -209 -129 -33 -133 -38 -125 77 -125 85
0 414 18 418 23 1 1 10 229 19 507 9 278 18 524 21 548 l5 42 258 -6 258 -7
10 49 c6 28 12 43 16 34 3 -8 24 -159 47 -335 22 -176 57 -439 77 -583 35
-254 37 -264 60 -273 31 -11 273 -12 292 0 11 7 3 93 -48 507 -34 275 -134
1084 -222 1799 -87 715 -162 1310 -164 1323 -5 22 -8 22 -150 22 -128 0 -144
-2 -149 -17z"/>
<path d="M903 2475 c-62 -27 -73 -47 -73 -133 l0 -79 -70 -67 c-54 -52 -74
-66 -88 -60 -31 14 -110 16 -148 4 -36 -12 -37 -12 -81 32 -38 38 -45 52 -52
101 -8 62 -28 92 -68 102 -38 9 -91 -13 -108 -45 -37 -72 -2 -127 88 -139 48
-6 64 -14 97 -46 31 -30 40 -47 40 -72 0 -43 -21 -53 -113 -53 -69 0 -75 2
-85 25 -16 34 -69 65 -112 65 -47 0 -96 -32 -117 -75 -14 -29 -15 -40 -4 -76
19 -64 53 -89 119 -89 53 0 58 2 98 45 l41 45 80 0 79 0 17 -34 c17 -36 67
-79 105 -91 21 -6 22 -12 22 -96 l0 -89 -40 -25 c-44 -28 -60 -57 -60 -108 0
-71 76 -136 141 -122 66 15 117 86 105 148 -6 34 -20 53 -70 94 -24 21 -26 28
-26 106 l0 83 45 22 c79 38 109 115 80 202 l-17 52 48 50 c81 82 100 93 165
90 51 -3 61 0 90 26 27 24 33 37 37 83 3 45 0 59 -19 83 -21 27 -74 56 -101
56 -7 -1 -27 -7 -45 -15z m-252 -389 c100 -68 57 -206 -65 -206 -30 0 -45 7
-72 34 -40 40 -46 93 -15 140 39 59 95 71 152 32z"/>
</g>
</svg>
